<svg width="96" height="120" viewBox="0 0 96 120" fill="none" xmlns="http://www.w3.org/2000/svg">
<path d="M5.51048 99.6808V104.275H4.67462V103.073C4.33409 103.998 3.65302 104.46 2.66237 104.46C2.25992 104.46 1.88842 104.398 1.6098 104.244C1.33118 104.09 1.08352 103.905 0.866817 103.689C0.681071 103.443 0.495324 103.165 0.402451 102.857C0.27862 102.548 0.185747 102.209 0.123831 101.87C0.0619155 101.531 0.0309578 101.192 0 100.852C0 100.482 0 100.174 0 99.8658C0 99.5266 0 99.1875 0.0309578 98.8174C0.0619155 98.4474 0.0928733 98.1083 0.154789 97.7691C0.216704 97.4299 0.309578 97.0908 0.433409 96.8132C0.55724 96.5049 0.712028 96.2274 0.928733 96.0116C1.14544 95.7957 1.3931 95.6107 1.70268 95.4566C2.01225 95.3332 2.38375 95.2407 2.81716 95.2407C3.62206 95.2407 4.24121 95.4566 4.70558 95.9191C5.13899 96.3816 5.38665 97.0291 5.41761 97.8616H4.33409C4.30313 97.3066 4.1793 96.8749 3.90068 96.5666C3.65302 96.2582 3.28152 96.1041 2.81716 96.1041C2.50758 96.1041 2.25992 96.1657 2.04321 96.3199C1.82651 96.4741 1.67172 96.6282 1.54789 96.8441C1.42406 97.0599 1.33118 97.3066 1.26927 97.6149C1.20735 97.8924 1.14544 98.2008 1.14544 98.4783C1.11448 98.7558 1.11448 99.0641 1.11448 99.3108C1.11448 99.5883 1.11448 99.835 1.11448 100.02C1.11448 101.253 1.26927 102.117 1.54789 102.702C1.82651 103.258 2.25992 103.535 2.87907 103.535C3.25056 103.535 3.56014 103.443 3.77685 103.227C3.99355 103.042 4.1793 102.795 4.27217 102.487C4.36504 102.178 4.45792 101.87 4.48887 101.531C4.51983 101.192 4.51983 100.883 4.51983 100.575V100.482H2.75524V99.6808H5.51048Z" fill="#F9F9FB"/>
<path d="M11.7949 95.4106C12.5689 95.4106 13.188 95.5956 13.6215 95.9656C14.0858 96.3357 14.3025 96.9215 14.3025 97.7232C14.3025 98.309 14.1787 98.7715 13.931 99.1415C13.6834 99.5115 13.3428 99.7582 12.8785 99.8815C13.188 99.9432 13.4048 100.036 13.5905 100.159C13.7762 100.282 13.9001 100.437 13.9929 100.652C14.0549 100.745 14.0858 100.837 14.1168 100.961C14.1477 101.053 14.1787 101.177 14.1787 101.362C14.2097 101.516 14.2097 101.732 14.2406 101.978C14.2406 102.225 14.2716 102.533 14.2716 102.934C14.2716 103.057 14.2716 103.181 14.2716 103.304C14.2716 103.427 14.3025 103.551 14.3335 103.705C14.3644 103.828 14.3954 103.952 14.4573 104.075C14.5192 104.198 14.6121 104.291 14.705 104.352H13.3738C13.3119 104.229 13.25 104.075 13.219 103.89C13.188 103.705 13.1571 103.427 13.1261 103.057L13.0952 102.317C13.0952 102.04 13.0642 101.824 13.0642 101.639C13.0333 101.454 13.0023 101.3 12.9713 101.177C12.9404 101.053 12.9094 100.961 12.8475 100.868C12.7856 100.776 12.7237 100.714 12.6308 100.652C12.4451 100.498 12.2284 100.406 11.9807 100.406C11.733 100.375 11.4854 100.375 11.2687 100.375H10.1851V104.352H9.10162V95.4723H11.7949V95.4106ZM10.2471 99.4807H11.4235C11.5782 99.4807 11.764 99.4807 11.9188 99.4499C12.0736 99.419 12.2284 99.3882 12.3212 99.3574C12.5998 99.2649 12.7856 99.0799 12.9404 98.8024C13.0952 98.5249 13.1571 98.1857 13.1571 97.8157C13.1571 97.5073 13.1261 97.2607 13.0333 97.0757C12.9404 96.8907 12.8166 96.7365 12.6618 96.6132C12.507 96.4898 12.3212 96.3973 12.1045 96.3665C11.8878 96.3048 11.6711 96.3048 11.3925 96.3048H10.1851V99.4807H10.2471Z" fill="#F9F9FB"/>
<path d="M21.237 95.4106L23.7136 104.291H22.5372L21.8871 101.855H19.039L18.3579 104.291H17.2125L19.782 95.4106H21.237ZM20.4321 96.5515C20.4011 96.7057 20.3702 96.8598 20.3082 97.0757L19.2557 100.961H21.6704L20.6797 97.0757C20.6178 96.8907 20.5869 96.7057 20.5869 96.5823C20.5559 96.459 20.5249 96.3048 20.494 96.089C20.494 96.2432 20.463 96.3973 20.4321 96.5515Z" fill="#F9F9FB"/>
<path d="M27.8 95.4106V104.291H26.6855V95.4106H27.8Z" fill="#F9F9FB"/>
<path d="M33.0629 95.2716L35.0442 100.082C35.2609 100.606 35.4466 101.161 35.6324 101.685C35.8181 102.209 35.9729 102.764 36.0967 103.319H36.1587C36.1277 102.918 36.0967 102.518 36.0658 102.117C36.0348 101.716 36.0348 101.315 36.0348 100.914V95.2407H37.0874V104.121H35.6633L33.6511 99.1258C33.5273 98.8483 33.4344 98.5399 33.3105 98.2624C33.1867 97.9849 33.0938 97.6766 33.0319 97.4299C32.9391 97.1524 32.8771 96.9058 32.8152 96.6899C32.7533 96.4432 32.6914 96.2582 32.6914 96.1041H32.6295C32.6914 96.4741 32.7223 96.8749 32.7223 97.3374C32.7223 97.7691 32.7533 98.2008 32.7533 98.6016V104.183H31.7007V95.3024H33.0629V95.2716Z" fill="#F9F9FB"/>
<path d="M47.0867 101.469V101.623C47.0867 101.901 47.1177 102.148 47.1487 102.363C47.1796 102.61 47.2725 102.795 47.3963 102.98C47.5202 103.165 47.6749 103.288 47.8916 103.381C48.0774 103.473 48.356 103.535 48.6656 103.535C49.1919 103.535 49.5943 103.412 49.8729 103.134C50.1516 102.857 50.3064 102.456 50.3064 101.962C50.3064 101.562 50.2135 101.222 49.9968 100.976C49.811 100.729 49.4705 100.544 49.0061 100.359L48.1393 100.051C47.4582 99.8041 46.932 99.5266 46.6224 99.1258C46.3128 98.7558 46.158 98.2316 46.158 97.6458C46.158 96.8749 46.3747 96.2891 46.8391 95.8574C47.2725 95.4257 47.9226 95.2407 48.7585 95.2407C49.5634 95.2407 50.1516 95.4566 50.585 95.8574C51.0184 96.2582 51.2041 96.8441 51.2041 97.6149V97.7074H50.1206C50.1206 97.4608 50.0896 97.2758 50.0587 97.0599C50.0277 96.8749 49.9349 96.6899 49.842 96.5666C49.7491 96.4432 49.5943 96.3199 49.4086 96.2582C49.2228 96.1966 49.0061 96.1349 48.7275 96.1349C48.2631 96.1349 47.8916 96.2582 47.644 96.5049C47.3963 96.7516 47.2725 97.0908 47.2725 97.5533C47.2725 97.9849 47.3963 98.3241 47.613 98.5708C47.8297 98.8174 48.2322 99.0333 48.7585 99.2183L49.5943 99.4958C49.9039 99.5883 50.1825 99.7116 50.3992 99.8658C50.6159 99.9891 50.8326 100.174 50.9874 100.359C51.1422 100.544 51.266 100.76 51.328 101.007C51.3899 101.253 51.4518 101.562 51.4518 101.87C51.4518 102.703 51.2041 103.319 50.7398 103.751C50.2444 104.183 49.5634 104.398 48.6656 104.398C47.7369 104.398 47.0558 104.152 46.6533 103.689C46.2509 103.227 46.0342 102.517 46.0342 101.623V101.469H47.0867Z" fill="#F9F9FB"/>
<path d="M59.9033 95.4106V96.3665H57.6743V104.291H56.5908V96.3665H54.3309V95.4106H59.9033Z" fill="#F9F9FB"/>
<path d="M65.6923 95.4106C66.4663 95.4106 67.0854 95.5956 67.5189 95.9656C67.9832 96.3357 68.1999 96.9215 68.1999 97.7232C68.1999 98.309 68.0761 98.7715 67.8284 99.1415C67.5808 99.5115 67.2402 99.7582 66.7759 99.8815C67.0854 99.9432 67.3022 100.036 67.4879 100.159C67.6736 100.282 67.7975 100.437 67.8903 100.652C67.9523 100.745 67.9832 100.837 68.0142 100.961C68.0451 101.053 68.0761 101.177 68.0761 101.362C68.1071 101.516 68.1071 101.732 68.138 101.978C68.138 102.225 68.169 102.533 68.169 102.934C68.169 103.057 68.169 103.181 68.169 103.304C68.169 103.427 68.1999 103.551 68.2309 103.705C68.2618 103.828 68.2928 103.952 68.3547 104.075C68.4166 104.198 68.5095 104.291 68.6024 104.352H67.2712C67.2093 104.229 67.1474 104.075 67.1164 103.89C67.0854 103.705 67.0545 103.427 67.0235 103.057L66.9926 102.317C66.9926 102.04 66.9616 101.824 66.9616 101.639C66.9307 101.454 66.8997 101.3 66.8687 101.177C66.8378 101.053 66.8068 100.961 66.7449 100.868C66.683 100.776 66.6211 100.714 66.5282 100.652C66.3425 100.498 66.1258 100.406 65.8781 100.406C65.6304 100.375 65.3828 100.375 65.1661 100.375H64.0825V104.352H62.999V95.4723H65.6923V95.4106ZM64.1445 99.4807H65.3209C65.4756 99.4807 65.6614 99.4807 65.8162 99.4499C65.971 99.419 66.1258 99.3882 66.2186 99.3574C66.4972 99.2649 66.683 99.0799 66.8378 98.8024C66.9926 98.5249 67.0545 98.1857 67.0545 97.8157C67.0545 97.5073 67.0235 97.2607 66.9307 97.0757C66.8378 96.8907 66.714 96.7365 66.5592 96.6132C66.4044 96.4898 66.2186 96.3973 66.0019 96.3665C65.7852 96.3048 65.5685 96.3048 65.2899 96.3048H64.0825V99.4807H64.1445Z" fill="#F9F9FB"/>
<path d="M76.5895 95.4106V96.3665H73.0912V99.2032H76.4037V100.128H73.0912V103.335H76.7443V104.291H72.0077V95.4106H76.5895Z" fill="#F9F9FB"/>
<path d="M83.3073 95.4106L85.7839 104.291H84.6075L83.9574 101.855H81.1093L80.4282 104.291H79.2828L81.8523 95.4106H83.3073ZM82.5024 96.5515C82.4715 96.7057 82.4405 96.8598 82.3786 97.0757L81.326 100.961H83.7407L82.7501 97.0757C82.6882 96.8907 82.6572 96.7057 82.6572 96.5823C82.6262 96.459 82.5953 96.3048 82.5643 96.089C82.5643 96.2432 82.5334 96.3973 82.5024 96.5515Z" fill="#F9F9FB"/>
<path d="M90.6134 95.4106L91.6969 99.5424C91.8517 100.159 92.0064 100.745 92.1303 101.362C92.2541 101.978 92.3779 102.595 92.4399 103.212H92.4708C92.5327 102.687 92.5946 102.194 92.6875 101.701C92.7804 101.207 92.9042 100.714 93.0281 100.221L94.2354 95.4415H96V104.322H94.9474V98.0932C94.9474 97.5998 94.9474 97.199 94.9784 96.8907C95.0093 96.5823 95.0093 96.3357 95.0403 96.1507H94.9784C94.9474 96.274 94.9474 96.3665 94.9165 96.459C94.8855 96.5515 94.8855 96.644 94.8546 96.7365C94.8236 96.829 94.8236 96.9523 94.7926 97.0448C94.7617 97.1682 94.7307 97.3223 94.6688 97.5073L92.9352 104.322H91.9136L90.2109 97.8465C90.1799 97.6923 90.118 97.5073 90.0871 97.3223C90.0561 97.1373 90.0252 96.9832 89.9942 96.829C89.9632 96.6748 89.9323 96.5207 89.9013 96.3973C89.8704 96.274 89.8704 96.1815 89.8394 96.1507H89.7775C89.8084 96.5515 89.8084 96.9832 89.8394 97.384C89.8704 97.7848 89.8704 98.2165 89.8704 98.6174V104.322H88.8488V95.4415H90.6134V95.4106Z" fill="#F9F9FB"/>
<path d="M38.7591 110.201V118.125H42.4121V119.081H37.6756V110.201H38.7591Z" fill="#F9F9FB"/>
<path d="M46.6843 110.201V118.125H50.3373V119.081H45.6008V110.201H46.6843Z" fill="#F9F9FB"/>
<path d="M58.8507 116.152C58.8197 116.614 58.7888 117.046 58.6649 117.447C58.5721 117.847 58.4173 118.187 58.2006 118.464C57.9839 118.742 57.7053 118.988 57.3957 119.142C57.0551 119.297 56.6527 119.389 56.1574 119.389C55.5073 119.389 54.981 119.235 54.6095 118.957C54.238 118.68 53.9594 118.31 53.7736 117.878C53.5879 117.447 53.464 116.953 53.4021 116.429C53.3402 115.905 53.3402 115.381 53.3402 114.887C53.3402 114.363 53.3712 113.839 53.4021 113.284C53.464 112.729 53.5879 112.205 53.7736 111.773C53.9594 111.311 54.238 110.941 54.6404 110.632C55.0119 110.324 55.5382 110.201 56.1883 110.201C57.0242 110.201 57.6743 110.447 58.1077 110.91C58.5411 111.372 58.7578 112.051 58.7888 112.976H57.7053C57.7053 112.729 57.6743 112.513 57.6124 112.267C57.5505 112.051 57.4885 111.835 57.3647 111.681C57.2409 111.496 57.0861 111.372 56.9004 111.249C56.7146 111.157 56.4669 111.095 56.1883 111.095C55.8787 111.095 55.6311 111.157 55.4453 111.28C55.2596 111.403 55.0738 111.588 54.95 111.804C54.8262 112.02 54.7333 112.267 54.6714 112.544C54.6095 112.822 54.5476 113.099 54.5476 113.377C54.5166 113.654 54.5166 113.932 54.5166 114.209C54.5166 114.487 54.5166 114.733 54.5166 114.918C54.5166 115.103 54.5166 115.35 54.5166 115.597C54.5166 115.843 54.5476 116.121 54.5785 116.367C54.6095 116.645 54.6404 116.892 54.7333 117.138C54.7952 117.385 54.8881 117.632 55.0119 117.817C55.1358 118.002 55.2905 118.187 55.5073 118.31C55.693 118.433 55.9407 118.495 56.2502 118.495C57.2718 118.495 57.7981 117.724 57.8291 116.152H58.8507Z" fill="#F9F9FB"/>
<path d="M55.1048 62.7472C53.9903 64.5973 52.3496 66.9406 50.4302 69.0682C48.8823 70.7949 47.1796 72.3366 45.6627 73.5082C46.3438 72.5216 47.0248 71.3499 47.5821 70.1165C48.4489 68.2973 49.099 66.3856 49.4705 64.9056C49.842 63.4564 49.9968 62.4697 49.9968 62.4697L49.7182 62.4081C49.7182 62.4081 49.5324 63.3948 49.13 64.8131C48.7275 66.2315 48.0465 68.1123 47.1487 69.9007C46.2509 71.6891 45.1364 73.3232 44.2077 74.4641C44.1458 74.5566 44.0839 74.5874 44.0219 74.6799C43.8052 74.8341 43.5885 74.9883 43.4028 75.1116C43.0313 75.3583 42.7217 75.5433 42.4431 75.6974C41.9168 76.0058 41.6072 76.1908 41.6072 76.1908L42.1026 77.0541C42.1026 77.0541 42.3812 76.8691 42.8455 76.5916L43.0313 76.7766C43.0313 76.7766 43.217 76.5916 43.4957 76.2525C43.5576 76.16 43.6505 76.0983 43.7433 76.0058C43.8052 75.975 43.8672 75.9441 43.9291 75.8825C44.3006 75.6358 44.703 75.3274 45.1364 74.9883C46.901 73.6624 49.0681 71.6891 50.9565 69.469C52.8449 67.249 54.4547 64.8131 55.5382 62.9322C56.6217 61.0514 57.21 59.7255 57.21 59.7255L56.8694 59.5405C56.8385 59.633 56.2193 60.928 55.1048 62.7472Z" fill="#F9F9FB"/>
<path d="M54.7023 42.5034C54.3618 42.1025 54.3618 42.1025 54.2689 42.0717C54.1761 42.0717 53.9594 42.1025 53.8974 42.5342C53.8974 42.6575 53.8665 42.9659 53.8046 43.3359C53.5879 42.5342 53.3712 41.9484 53.2783 41.7325C53.0925 41.3317 52.9378 41.3317 52.8758 41.3625C52.8139 41.3934 52.8139 41.3934 52.6901 41.825C52.6901 41.825 52.6591 42.01 52.6282 42.3492C52.5972 42.6575 52.5044 43.12 52.3496 43.6751C52.1019 44.7542 51.5756 46.1418 50.8326 47.4676C50.4611 48.4235 50.3373 49.1018 50.3683 49.7185C50.3683 50.3352 50.4921 50.8902 50.554 51.5068C50.6778 50.0577 50.7088 49.5335 51.0493 48.7935C51.2351 48.4235 51.4518 47.9918 51.7614 47.3751C51.9162 47.0668 52.1019 46.6968 52.3186 46.2343C52.5353 45.7718 52.752 45.2476 52.9687 44.6001C53.2783 45.8026 53.464 47.0359 53.495 48.1768C53.464 48.701 53.464 49.2251 53.4331 49.6877C53.4331 49.6877 53.4331 49.6876 53.4331 49.7185C53.4331 49.7801 53.4331 49.8418 53.4331 49.8727C53.3402 50.6435 53.1235 51.3527 52.8449 51.9694C52.5353 52.5552 52.1638 53.0485 51.6375 53.3877C52.1019 53.3569 52.752 53.0177 53.3402 52.2469C53.4331 52.1235 53.526 52.0002 53.6188 51.846C53.6498 52.031 53.6807 52.216 53.7117 52.401C53.5569 52.6785 53.3712 52.956 53.1854 53.2335C52.783 53.8194 52.3496 54.4052 51.8233 54.9602C51.266 55.7927 50.9874 56.4711 50.8945 57.0569C50.7707 57.6736 50.7707 58.2286 50.7088 58.8145C50.9255 58.1361 51.0493 57.6428 51.2041 57.2728C51.3589 56.9028 51.5137 56.5944 51.7304 56.2861C51.9781 55.9469 52.2876 55.6077 52.752 55.0527C53.0925 54.6519 53.495 54.1277 53.9903 53.4185C54.0522 53.6344 54.1451 53.8502 54.207 54.0661C54.2689 54.2511 54.3618 54.3744 54.4547 54.5286C54.3618 55.7002 54.1761 56.8411 53.8355 57.8278C53.7117 58.1978 53.5569 58.537 53.4021 58.8761C53.2164 59.1845 53.0306 59.4928 52.8449 59.7395C52.4424 60.2636 51.9471 60.6645 51.3899 60.8803C51.8542 60.942 52.5663 60.757 53.3092 60.1095C53.6807 59.8011 54.0522 59.3386 54.3928 58.7836C54.7023 58.1978 55.0429 57.4886 55.2596 56.5944C55.3215 56.3478 55.3834 56.0702 55.4144 55.8236C55.693 56.1319 56.0026 56.4094 56.3741 56.5944C56.0335 56.1319 55.7549 55.6386 55.5382 55.0836C55.6311 54.2819 55.693 53.4185 55.693 52.6477C55.693 52.0002 55.662 51.4143 55.6311 50.9518C55.6001 50.4893 55.5692 50.1502 55.5382 49.996C55.4763 49.5643 55.2905 49.5643 55.2286 49.5643C55.1667 49.5643 55.1667 49.5643 54.95 49.9652C54.95 49.9652 54.9191 49.996 54.9191 50.0885C54.981 48.6393 55.1667 47.1284 55.3525 45.5868C56.2812 47.0051 56.9313 48.0535 57.3957 48.886C57.891 49.7185 58.2006 50.3043 58.3863 50.7977C58.5721 51.3218 58.6959 51.7535 58.7269 52.3394C58.7269 52.8944 58.6959 53.6035 58.5721 54.6211C58.8197 53.8194 59.1293 53.0794 59.2531 52.216C59.346 51.3527 59.3151 50.366 58.7269 49.071C56.5289 45.4943 54.7023 42.5034 54.7023 42.5034Z" fill="#F9F9FB"/>
<path d="M69.3144 43.7307C69.2215 43.7307 69.2215 43.7307 68.7881 44.1624C68.7881 44.1624 68.7572 44.2241 68.6643 44.3166C68.6024 44.4091 68.4785 44.5632 68.3547 44.7482C68.0761 45.1182 67.6427 45.6116 67.1164 46.1974C66.5901 46.7833 65.909 47.4308 65.1661 48.0783C64.3921 48.7258 63.5563 49.4041 62.6275 49.99C61.544 50.9458 60.8939 51.7783 60.5224 52.58C60.1199 53.3817 59.9032 54.1525 59.5937 54.9851C60.1509 54.0909 60.5224 53.4742 60.8939 53.0117C61.2344 52.5183 61.575 52.1792 62.0084 51.84C62.4727 51.47 63.0609 51.1 63.8658 50.5142C64.7017 49.9283 65.7852 49.0958 67.2402 47.8008C66.6211 50.4216 65.6304 52.8884 64.3302 54.7692C63.9897 55.2317 63.6801 55.6634 63.3086 56.0334C62.9371 56.4034 62.5656 56.7426 62.1941 57.0201C61.4202 57.6059 60.5843 57.9451 59.7175 58.0684C60.3366 58.3151 61.4202 58.3459 62.6894 57.7293C63.3086 57.4209 64.0206 56.9584 64.7017 56.2801C65.3828 55.6017 66.0948 54.7076 66.7139 53.5667C67.5808 52.0867 68.2928 50.0208 68.8191 48.2324C69.0667 47.3383 69.2525 46.5058 69.3763 45.8274C69.5001 45.1491 69.593 44.6557 69.593 44.4399C69.624 43.8232 69.4073 43.7307 69.3144 43.7307Z" fill="#F9F9FB"/>
<path d="M55.9716 36.5214C56.5908 37.0764 57.1171 37.6006 57.5505 38.0631C58.0148 38.5256 58.3863 38.9264 58.6959 39.2656C59.346 39.9748 59.7794 40.4681 60.089 40.9306C60.7082 41.8556 60.863 42.5957 61.0177 44.6307C61.1106 43.7982 61.2344 42.9965 61.2035 42.1332C61.1106 41.2698 60.863 40.314 60.0271 39.1731C58.5411 37.6622 57.2409 36.3056 56.2812 35.3497C55.8168 34.8872 55.4453 34.4864 55.1667 34.2397C54.8881 33.9622 54.7643 33.8389 54.7333 33.8389C54.3309 33.5305 54.3309 33.5305 54.207 33.5305C54.1142 33.5305 53.8975 33.623 53.9284 34.0547C53.9594 34.363 54.1451 35.4114 54.3309 36.7372C54.5476 38.0631 54.7643 39.6356 55.0429 40.9306C55.2286 41.7631 55.4453 42.534 55.7549 43.2123C56.0335 43.8907 56.3741 44.5074 56.7146 45.0007C57.4266 46.049 58.3554 46.7582 59.3151 47.0666C56.7146 44.7849 56.436 40.5915 55.9716 36.5214Z" fill="#F9F9FB"/>
<path d="M69.624 32.1461C69.5311 31.4986 69.3144 31.4677 69.2215 31.4986C69.1287 31.4986 69.1287 31.5294 68.8191 32.0536C68.8191 32.0536 68.6952 32.3002 68.5095 32.7319C68.3238 33.1636 68.0142 33.7494 67.6427 34.4586C66.8687 35.8461 65.6304 37.6345 64.0825 39.1762C63.2157 40.3479 62.7823 41.2729 62.5656 42.1671C62.318 43.0304 62.3179 43.8321 62.1322 44.6954C62.8752 42.7221 63.0919 41.9821 63.8349 41.0879C64.2064 40.6254 64.6707 40.132 65.3828 39.3612C65.7233 38.9912 66.1258 38.5287 66.5592 37.9737C67.0235 37.4187 67.5189 36.7711 68.0761 35.9695C68.0451 38.6828 67.6117 41.3654 66.714 43.4621C66.2805 44.5104 65.7233 45.4354 65.1041 46.1446C64.454 46.8538 63.742 47.378 62.9061 47.6863C63.5563 47.8097 64.6088 47.6246 65.7233 46.7613C66.8378 45.898 68.0451 44.3563 68.8191 41.8587C69.3454 40.1937 69.6549 38.0045 69.7169 36.1236C69.8407 34.2119 69.6859 32.6086 69.624 32.1461Z" fill="#F9F9FB"/>
<path d="M57.7981 29.6183C58.603 30.1116 59.1293 30.5125 59.5627 30.8516C60.3676 31.5916 60.7082 32.27 61.3583 34.1817C61.2964 33.75 61.2654 33.3492 61.2035 32.9483C61.1416 32.5475 61.0797 32.1467 60.9249 31.715C60.6463 30.8825 60.1509 30.0191 59.0674 29.1558C57.2719 28.0766 55.6311 27.1824 54.4857 26.5966C53.8975 26.3191 53.4331 26.0724 53.0926 25.9182C52.752 25.7641 52.5663 25.6716 52.5663 25.6716C52.1019 25.5174 52.1019 25.5174 51.9781 25.5791C51.8852 25.6099 51.6995 25.7641 51.8543 26.1032C51.9781 26.3807 52.4115 27.2441 52.9378 28.3849C53.4641 29.5258 54.0523 30.9133 54.6405 32.0233C56.1264 34.9525 58.1387 36.7101 60.2128 36.8951C58.665 36.0934 57.6434 34.7059 56.7765 33.0717C55.9097 31.4375 55.2287 29.5566 54.4857 27.7683C55.2287 28.1074 55.8478 28.4466 56.405 28.7549C56.9313 29.0941 57.3957 29.3716 57.7981 29.6183Z" fill="#F9F9FB"/>
<path d="M62.287 31.5669C62.287 32.0294 62.318 32.4302 62.3489 32.8619C62.3799 33.2936 62.4418 33.6944 62.4728 34.1261C62.7204 32.0294 62.7823 31.2585 63.2777 30.2102C63.4944 29.686 63.8659 29.0693 64.3302 28.1443C64.5469 27.6818 64.8256 27.1268 65.1042 26.4793C65.3828 25.801 65.6924 25.0301 66.0019 24.0743C66.7759 26.8185 66.9926 29.5935 66.6521 31.8752C66.3115 34.1569 65.3518 35.9761 63.8968 36.9011C64.5779 36.8703 65.5376 36.4695 66.4354 35.3594C67.3022 34.2494 68.169 32.4611 68.2619 29.7477C68.3238 27.9593 68.0452 25.6776 67.5808 23.7659C67.1164 21.8234 66.4973 20.2509 66.2806 19.8192C65.971 19.2025 65.7543 19.2334 65.6614 19.2642C65.5685 19.295 65.5685 19.3259 65.4447 19.9425C65.4447 19.9425 65.4447 20.0042 65.4447 20.1584C65.4447 20.2817 65.4447 20.4667 65.4138 20.7134C65.3518 21.2067 65.259 21.8851 65.1042 22.6867C64.7327 24.2901 64.1135 26.3868 62.999 28.2985C62.4728 29.6552 62.287 30.6727 62.287 31.5669Z" fill="#F9F9FB"/>
<path d="M56.8075 22.1347C57.2719 22.3505 57.6124 22.5972 57.9839 22.9672C58.1696 23.1522 58.3554 23.3681 58.5721 23.6456C58.7888 23.9231 59.0055 24.2622 59.2841 24.6322C59.1293 24.2622 58.9745 23.9231 58.8197 23.5531C58.665 23.2139 58.4792 22.8747 58.2316 22.5355C58.0148 22.1964 57.7053 21.888 57.3338 21.5797C57.148 21.4255 56.9313 21.2714 56.6837 21.148C56.436 21.0247 56.1574 20.9013 55.8788 20.778C54.95 20.5622 54.0213 20.408 53.2164 20.2538C52.4115 20.1305 51.6995 20.0072 51.0803 19.9455C50.4921 19.8838 50.0277 19.8222 49.6872 19.7913C49.3467 19.7605 49.1609 19.7605 49.1609 19.7605C48.6966 19.7913 48.6966 19.7913 48.6346 19.853C48.5727 19.9147 48.4489 20.0997 48.6966 20.3463C48.7894 20.4388 48.9752 20.6238 49.2538 20.9013C49.3776 21.0555 49.5634 21.1789 49.7182 21.3639C49.873 21.5489 50.0587 21.7339 50.2754 21.9189C51.0493 22.7205 51.9471 23.7072 52.7211 24.5089C52.9997 24.7556 53.2474 25.0331 53.495 25.2489C53.7736 25.4648 54.0213 25.6806 54.269 25.8964C54.5166 26.0814 54.7952 26.2664 55.0739 26.4206C55.3215 26.5748 55.6001 26.7289 55.8478 26.8523C56.9004 27.3456 57.9529 27.5306 58.8817 27.3764C58.4792 27.2839 58.1077 27.1606 57.7672 27.0064C57.3957 26.8523 57.0552 26.6673 56.7146 26.4514C56.0645 26.0198 55.4144 25.4956 54.8572 24.8789C53.6808 23.6764 52.5663 22.2889 51.3899 20.963C52.8759 21.1172 53.9903 21.333 54.8262 21.5489C55.7549 21.7339 56.3122 21.9189 56.8075 22.1347Z" fill="#F9F9FB"/>
<path d="M58.7888 11.3397C58.8816 11.8022 59.0364 12.4497 59.1603 13.1897C59.2531 13.9605 59.346 14.8856 59.346 15.8414C59.315 16.8281 59.2531 17.8148 59.0055 18.8631C58.9745 19.2023 58.9745 19.5106 58.9745 19.819C58.9745 20.1273 58.9745 20.4048 59.0055 20.6515C59.0674 21.1757 59.1603 21.6073 59.2531 22.0082C59.377 22.409 59.5318 22.779 59.6556 23.149C59.8104 23.519 59.9342 23.889 60.089 24.259C59.9961 23.7657 59.9342 23.3649 59.8723 22.9949C59.8104 22.6248 59.7485 22.3473 59.7175 22.0698C59.6556 21.5148 59.6556 21.0523 59.7175 20.5281C59.7794 19.9731 59.9342 19.3256 60.058 18.3698C60.2128 17.3831 60.3676 16.1189 60.3057 14.2072C61.8536 16.4581 62.8752 18.9248 63.1848 21.114C63.3396 22.224 63.3396 23.2107 63.1229 24.1357C63.03 24.5674 62.8752 24.999 62.6894 25.3691C62.5037 25.7391 62.256 26.0782 61.9774 26.3866C62.5656 26.2016 63.3705 25.5849 63.8658 24.3515C64.1135 23.7349 64.3302 22.964 64.3921 22.039C64.454 21.114 64.3612 20.004 64.0206 18.7398C63.5872 17.0748 62.6275 15.0706 61.6059 13.4364C61.3273 13.0355 61.0796 12.6655 60.832 12.2955C60.5843 11.9563 60.3367 11.648 60.1199 11.3705C59.6865 10.8155 59.346 10.4147 59.1603 10.2605C58.6959 9.79798 58.5101 9.89048 58.4482 9.95215C58.3863 10.0138 58.3863 10.0138 58.5101 10.6305C58.603 10.6305 58.6649 10.908 58.7888 11.3397Z" fill="#F9F9FB"/>
<path d="M49.1609 15.0291C49.9967 14.9057 50.6159 14.8441 51.1422 14.8749C51.6375 14.9057 52.0709 14.9982 52.5353 15.1832C52.7829 15.3066 53.0306 15.4299 53.3092 15.6149C53.6188 15.7999 53.9593 16.0157 54.3308 16.2932C54.207 16.1391 54.0522 16.0157 53.9284 15.8616L53.5259 15.4607C53.2473 15.2141 52.9687 14.9366 52.6281 14.7207C52.2876 14.5049 51.8852 14.3199 51.4517 14.1657C50.9874 14.0424 50.4301 13.9807 49.811 13.9807C47.8606 14.3507 46.2508 14.7207 45.0744 15.0599C44.4863 15.2141 44.0528 15.3374 43.7123 15.4607C43.4027 15.5532 43.217 15.6149 43.217 15.6149C42.8145 15.7999 42.8145 15.7999 42.7526 15.8924C42.7217 15.9849 42.6907 16.1699 43.0003 16.3241C43.2479 16.4474 44.0838 16.7558 45.0744 17.1874C46.0961 17.5883 47.2415 18.1741 48.2321 18.575C48.8823 18.8216 49.5014 19.0683 50.1206 19.1916C50.7088 19.3458 51.3279 19.4383 51.8852 19.5C52.9996 19.5925 54.0832 19.4075 54.8881 18.945C54.0832 19.0375 53.3092 19.0066 52.5662 18.8216C51.7923 18.6675 51.0493 18.3899 50.3063 18.0816C48.8203 17.4341 47.3034 16.6016 45.7246 15.8307C46.4366 15.6149 47.0867 15.4299 47.613 15.3374C48.2321 15.1832 48.7584 15.0907 49.1609 15.0291Z" fill="#F9F9FB"/>
<path d="M48.8513 4.23555C49.13 4.57472 49.5015 5.12973 49.9039 5.80808C50.7088 7.13393 51.5756 9.04563 51.9781 11.0807C52.1948 11.759 52.4424 12.2832 52.6901 12.7457C52.9068 13.2082 53.1545 13.5782 53.4331 13.9174C53.7117 14.2565 53.9594 14.5649 54.238 14.8424L54.6404 15.2741C54.7643 15.4282 54.8881 15.5824 55.0429 15.7366C54.8262 15.3049 54.6095 14.9349 54.3928 14.6265C54.207 14.3182 54.0522 14.0407 53.9284 13.794C53.6498 13.3007 53.495 12.8999 53.3712 12.3448C53.2473 11.7898 53.0926 11.1423 52.8759 10.2173C52.752 9.72397 52.5972 9.1998 52.3805 8.55229C52.1638 7.87394 51.8852 7.16476 51.4828 6.27058C53.7736 7.75061 55.7549 9.69314 56.8694 11.6665C57.4576 12.6532 57.7981 13.6399 57.9529 14.5649C58.0768 15.4899 57.9839 16.3532 57.6743 17.0933C58.1696 16.7232 58.6959 15.8907 58.7578 14.534C58.8197 13.1774 58.3863 11.2657 56.7456 9.10729C56.4979 8.73729 56.1883 8.36728 55.8478 8.02811C55.5073 7.6581 55.1667 7.2881 54.7952 6.94893C54.4237 6.60975 54.0213 6.27058 53.6188 5.93141C53.2164 5.59224 52.8139 5.31473 52.4115 5.03723C50.8326 3.92721 49.3776 3.21804 48.9442 3.06387C48.356 2.8172 48.2012 2.97136 48.1703 3.06387C48.1393 3.15637 48.1393 3.15637 48.4799 3.68054C48.387 3.68054 48.5727 3.86555 48.8513 4.23555Z" fill="#F9F9FB"/>
<path d="M40.1213 11.8234C40.6785 11.5767 41.1738 11.3608 41.6072 11.2375C42.474 10.9292 43.0932 10.7133 43.6195 10.6517C44.1458 10.5592 44.6101 10.5283 45.1364 10.6517C45.6627 10.7442 46.3128 10.9292 47.1796 11.2683C46.5295 10.8367 45.9104 10.4667 45.1364 10.1583C44.3625 9.91166 43.4028 9.75749 42.0716 10.0967C41.8239 10.1892 41.6072 10.2817 41.3596 10.3742C41.1119 10.4667 40.8952 10.5592 40.6785 10.6517C40.2141 10.8367 39.8117 10.9908 39.3783 11.1758C38.5424 11.5458 37.8613 11.8234 37.2422 12.1009C36.623 12.3784 36.1587 12.5634 35.8181 12.7484C35.4776 12.9025 35.2918 12.995 35.2918 12.995C34.8584 13.2725 34.8584 13.2725 34.8275 13.365C34.7965 13.4575 34.7965 13.6425 35.199 13.7659C35.3538 13.7967 35.6943 13.8584 36.1277 13.9201C36.5611 14.0126 37.1493 14.0742 37.7375 14.1976C38.9449 14.4134 40.338 14.6909 41.4834 14.8451C42.2264 14.9684 42.9074 14.9684 43.5576 14.9992C43.8671 14.9992 44.2077 14.9684 44.5173 14.9376C44.8268 14.9067 45.1054 14.8759 45.415 14.8142C46.0032 14.6909 46.5295 14.5367 47.0248 14.3517C47.5202 14.1359 47.9536 13.8892 48.356 13.5809C46.7772 14.1359 45.1983 14.0742 43.5266 13.8584C41.8549 13.6117 40.0903 13.1492 38.2328 12.7484C38.6043 12.5634 38.9449 12.4092 39.2544 12.255C39.5331 12.0392 39.8117 11.9159 40.1213 11.8234Z" fill="#F9F9FB"/>
<path d="M36.1586 1.6923C36.1586 1.6923 36.4063 1.81564 36.8087 2.03148C37.2112 2.24731 37.7994 2.58648 38.4805 3.01816C39.1615 3.419 39.9045 4.03567 40.7094 4.65235C41.1119 4.96069 41.4834 5.36153 41.8858 5.73153C42.0716 5.91654 42.2573 6.10154 42.4431 6.31738C42.6288 6.53321 42.8145 6.74905 43.0003 6.96489C44.0838 7.95157 44.8887 8.53741 45.6936 8.87658C46.4676 9.24659 47.2105 9.43159 47.9535 9.77076C47.1177 9.18492 46.4985 8.87658 46.0032 8.50658C45.5388 8.16741 45.1673 7.8899 44.7649 7.42739C44.3624 6.99572 43.8981 6.47155 43.186 5.7007C42.8145 5.29986 42.4121 4.89902 41.8549 4.37485C41.5762 4.12818 41.2976 3.85067 40.9571 3.57317C40.6165 3.29566 40.276 3.01816 39.8736 2.70982C42.4431 3.01816 45.0126 3.789 46.9938 5.02236C49.0061 6.25571 50.3682 7.92074 50.7088 9.67826C50.8017 9.18492 50.7707 8.66075 50.6469 8.0749C50.4921 7.48906 50.2444 6.87239 49.811 6.25571C49.5943 5.94737 49.3466 5.63903 49.068 5.29986C48.7894 4.99152 48.4489 4.68318 48.0774 4.37485C47.3344 3.75817 46.4366 3.234 45.384 2.70982C43.7742 1.96981 41.6382 1.4148 39.8426 1.1373C38.9448 0.983126 38.1399 0.952293 37.4898 0.890625C36.8397 0.921459 36.3753 0.921459 36.1586 0.921459C35.5704 0.952293 35.5704 1.1373 35.5704 1.2298C35.6014 1.35313 35.6014 1.35313 36.1586 1.6923Z" fill="#F9F9FB"/>
<path d="M26.6237 7.87662C26.7785 7.93829 27.1809 8.03079 27.7072 8.15412C27.9858 8.21579 28.2954 8.27746 28.605 8.33913C28.9455 8.43163 29.286 8.4933 29.6575 8.5858C30.029 8.6783 30.4315 8.7708 30.803 8.83247C31.2054 8.92497 31.6079 9.01747 31.9794 9.10997C32.7533 9.26414 33.5272 9.47998 34.2083 9.60331C35.9729 9.94249 37.4279 9.97332 38.6972 9.84999C39.3473 9.75748 39.9665 9.63415 40.5237 9.47998C41.1119 9.32581 41.6382 9.07914 42.1645 8.8633C40.1832 9.23331 38.3567 9.17164 36.4373 8.80164C34.5179 8.46246 32.5366 7.87662 30.4005 7.16744C32.4437 6.3041 34.6108 5.74909 36.7468 5.81075C38.852 5.87242 40.8952 6.55077 42.4431 7.90745C42.1335 7.41411 41.7001 6.98244 41.2357 6.55077C40.7404 6.11909 40.1522 5.74909 39.5021 5.44075C38.1709 4.82407 36.4373 4.51573 34.425 4.6699C32.8771 4.82407 30.9887 5.28658 29.4718 5.87242C29.1003 6.02659 28.7288 6.14993 28.3883 6.27326C28.0787 6.42743 27.7691 6.55077 27.4905 6.6741C26.9642 6.92077 26.6237 7.10577 26.4689 7.16744C26.2212 7.32161 26.1903 7.47578 26.2212 7.53745C26.2831 7.66078 26.3141 7.78412 26.6237 7.87662Z" fill="#F9F9FB"/>
<path d="M49.099 56.2983C49.3157 56.6066 49.4705 56.8841 49.5943 57.2541C49.6872 57.6241 49.811 58.1175 49.9039 58.7958C49.9348 58.21 49.9967 57.655 49.9348 57.0691C49.842 56.4833 49.6253 55.8049 49.0061 55.0649C46.9629 53.1224 45.1983 51.4574 45.1673 51.4265C44.8578 51.2107 44.8578 51.2107 44.7958 51.2107C44.7339 51.2107 44.5791 51.2724 44.6411 51.5807C44.672 51.704 44.703 51.9507 44.7649 52.2899C44.8268 52.629 44.9197 53.0607 45.0125 53.5232C45.1983 54.4482 45.415 55.5583 45.6317 56.4524C45.9413 57.5933 46.4056 58.5183 46.9629 59.2275C47.5201 59.9058 48.1393 60.3683 48.8513 60.5533C46.9629 59.1041 46.5914 56.2366 46.158 53.3382C47.0248 54.1091 47.6749 54.6949 48.1393 55.1574C48.5727 55.6508 48.8823 55.9899 49.099 56.2983Z" fill="#F9F9FB"/>
<path d="M47.2416 48.5003C47.7988 48.8395 48.1703 49.117 48.4799 49.3637C49.0681 49.857 49.2848 50.3195 49.7801 51.6454C49.6872 51.0595 49.6253 50.5045 49.4395 49.9495C49.2228 49.3945 48.8823 48.7778 48.1084 48.192C46.8391 47.452 45.7246 46.7736 44.9197 46.3111C44.5173 46.0645 44.2077 45.8795 43.96 45.7561C43.7433 45.6328 43.6195 45.5711 43.5885 45.5403C43.248 45.417 43.248 45.417 43.1861 45.4478C43.1242 45.4786 43.0003 45.5711 43.0932 45.8486C43.1551 46.0645 43.4957 46.7428 43.8362 47.5753C44.2077 48.4078 44.6411 49.4254 45.0745 50.2579C45.3531 50.782 45.6317 51.2445 45.9723 51.6454C46.2819 52.0462 46.6224 52.3854 46.9629 52.6629C47.644 53.2179 48.387 53.5571 49.0681 53.5879C46.901 52.5704 45.9723 49.8262 44.9197 47.1745C45.446 47.452 45.8794 47.6987 46.2509 47.9145C46.6224 48.1303 46.9629 48.3153 47.2416 48.5003Z" fill="#F9F9FB"/>
<path d="M47.8298 46.6675C46.6534 46.4208 45.7246 45.6808 44.8269 44.725C43.96 43.7999 43.1551 42.6591 42.3193 41.5799C42.8765 41.6724 43.3409 41.7958 43.7743 41.8883C44.1767 42.0116 44.5482 42.1041 44.8578 42.1966C45.477 42.3816 45.9104 42.5358 46.2509 42.7208C46.932 43.0599 47.2725 43.4608 48.0465 44.6325C47.9226 44.355 47.8298 44.1083 47.7059 43.8308C47.6131 43.5533 47.4583 43.3066 47.3035 43.0599C46.9629 42.5666 46.4676 42.0733 45.6008 41.6724C44.2077 41.2716 42.9384 40.9941 42.0716 40.7782C41.6382 40.6857 41.2667 40.6241 41.0191 40.5624C40.7714 40.5316 40.6476 40.5007 40.6166 40.5007C40.2761 40.5007 40.2761 40.5007 40.2142 40.5316C40.1522 40.5624 40.0594 40.6857 40.2451 40.9016C40.3689 41.0557 40.8333 41.5799 41.3905 42.2274C41.9478 42.8749 42.5979 43.7074 43.1861 44.355C44.7649 46.0817 46.4367 46.9142 47.8298 46.6675Z" fill="#F9F9FB"/>
<path d="M51.6994 44.3772C52.0709 43.4831 52.3186 42.1264 51.9161 40.2763C51.6375 39.0738 51.0493 37.5938 50.3682 36.3913C49.6872 35.1888 49.0061 34.2329 48.7894 33.9862C48.4798 33.6471 48.325 33.6779 48.2941 33.7396C48.2322 33.8012 48.2322 33.8012 48.2941 34.2329C48.2941 34.2329 48.2941 34.2946 48.325 34.3871C48.356 34.4796 48.387 34.6029 48.387 34.7879C48.4489 35.1271 48.5108 35.5896 48.5417 36.1754C48.6037 37.3163 48.5417 38.8272 48.1393 40.3072C48.0155 41.3247 48.1083 42.0339 48.2631 42.6197C48.356 42.928 48.4489 43.2056 48.5417 43.4831C48.6346 43.7606 48.7584 44.0381 48.8513 44.3156C48.6346 42.8664 48.5417 42.3422 48.6656 41.5405C48.7275 41.1397 48.8513 40.6772 49.0061 39.968C49.068 39.6288 49.1609 39.1972 49.2228 38.7038C49.2847 38.2105 49.3466 37.6246 49.3776 36.9463C50.3992 38.6421 51.0493 40.4613 51.2351 42.0339C51.4208 43.6372 51.1112 44.9939 50.3063 45.8881C50.7397 45.7339 51.297 45.2714 51.6994 44.3772Z" fill="#F9F9FB"/>
<path d="M41.2357 39.9823C41.4524 40.0748 41.6691 40.1673 41.8858 40.2598C42.1025 40.3523 42.3192 40.414 42.505 40.4756C42.7217 40.5373 42.9074 40.599 43.0932 40.6298C43.8981 40.7531 44.6101 40.7223 45.2293 40.4448C44.9506 40.4448 44.672 40.4448 44.4244 40.414C44.1457 40.3831 43.8981 40.3215 43.6195 40.229C43.0932 40.044 42.5669 39.8281 42.0716 39.5198C41.05 38.9339 40.0593 38.1939 39.0377 37.5156C40.0593 37.3614 40.8333 37.2998 41.4524 37.2998C42.0716 37.2689 42.474 37.2998 42.8146 37.3614C43.1551 37.4231 43.4337 37.5156 43.7433 37.7006C43.8981 37.7931 44.0838 37.9164 44.2696 38.0398C44.4553 38.1939 44.672 38.3789 44.9197 38.5639C44.7339 38.3481 44.5791 38.1323 44.4244 37.9164C44.2696 37.7006 44.0529 37.5156 43.8671 37.3306C43.6504 37.1456 43.4028 36.9914 43.0932 36.8681C42.9384 36.8064 42.7836 36.7447 42.5979 36.6831C42.4121 36.6522 42.1954 36.5906 41.9787 36.5906C41.2976 36.6214 40.6475 36.6831 40.0903 36.7139C39.533 36.7756 39.0377 36.8372 38.6043 36.8989C38.2018 36.9606 37.8613 37.0222 37.6446 37.0531C37.4279 37.0839 37.3041 37.1148 37.2731 37.1148C36.9635 37.2073 36.9635 37.2073 36.9326 37.2689C36.9016 37.3306 36.8707 37.4539 37.0564 37.5773C37.1493 37.6081 37.3041 37.7314 37.5517 37.8548C37.6756 37.9164 37.7994 37.9781 37.9542 38.0706C38.109 38.1631 38.2638 38.2556 38.4186 38.3481C39.0687 38.7489 39.8426 39.2423 40.5237 39.6431C40.8023 39.7665 41.019 39.8898 41.2357 39.9823Z" fill="#F9F9FB"/>
<path d="M47.1796 39.3435C47.5511 39.1277 47.9536 38.5727 48.0774 37.6477C48.1393 37.1852 48.1393 36.6302 47.9845 36.0135C47.8607 35.366 47.5821 34.6568 47.1177 33.8551C46.5295 32.8068 45.5079 31.6659 44.5482 30.7409C44.3006 30.5251 44.0529 30.3092 43.8362 30.1242C43.6195 29.9392 43.3718 29.7851 43.1861 29.6309C42.7836 29.3534 42.505 29.1376 42.3502 29.0759C41.9478 28.86 41.8549 28.9526 41.8239 29.0142C41.793 29.0759 41.793 29.0759 41.9787 29.4459C41.9787 29.4459 42.0716 29.6001 42.2573 29.8776C42.4121 30.1551 42.6288 30.5559 42.8455 31.0493C43.0622 31.5426 43.279 32.1284 43.4337 32.7759C43.5885 33.4235 43.7124 34.1326 43.7743 34.8418C43.8362 35.0885 43.8671 35.3043 43.9291 35.4893C43.991 35.6743 44.0529 35.8593 44.1148 36.0443C44.2386 36.3835 44.3934 36.661 44.5482 36.9077C44.703 37.1543 44.8578 37.3702 45.0435 37.586C45.1983 37.8019 45.3841 38.0177 45.5389 38.2644C45.3841 37.956 45.2912 37.6785 45.1674 37.4627C45.0745 37.2468 44.9816 37.031 44.8888 36.8768C44.734 36.5068 44.6721 36.1985 44.6101 35.8285C44.5482 35.4585 44.5482 34.996 44.4554 34.3176C44.3625 33.6393 44.2386 32.7451 43.8672 31.4809C45.2912 32.7143 46.4676 34.1635 47.0558 35.5818C47.3654 36.291 47.5511 36.9693 47.5511 37.6169C47.5511 37.9252 47.5511 38.2335 47.4892 38.511C47.3963 38.8194 47.3035 39.0969 47.1796 39.3435Z" fill="#F9F9FB"/>
<path d="M39.1306 36.6132C39.9045 36.4899 40.5856 36.1507 41.05 35.719C40.5237 35.9349 39.9974 36.0274 39.4711 36.0582C38.9139 36.0891 38.3876 36.0274 37.8304 35.9657C36.7159 35.8115 35.5704 35.534 34.3631 35.2874C34.7965 35.0099 35.199 34.794 35.5395 34.609C35.88 34.424 36.2206 34.2699 36.4682 34.1465C36.9945 33.9307 37.4279 33.7457 37.7684 33.684C38.109 33.6223 38.3876 33.5915 38.7591 33.6532C38.9448 33.684 39.1306 33.7457 39.3473 33.8074C39.595 33.869 39.8426 33.9615 40.1522 34.0849C40.0284 34.0232 39.9355 33.9307 39.8117 33.869L39.4711 33.684C39.2235 33.5607 39.0068 33.4373 38.7281 33.3448C38.4495 33.2523 38.1709 33.1907 37.8304 33.1907C37.4898 33.1907 37.1183 33.2523 36.6849 33.3757C35.4466 33.9615 34.425 34.5165 33.713 34.9482C33.3415 35.164 33.0629 35.3182 32.8771 35.4724C32.6914 35.5957 32.5675 35.6574 32.5675 35.6574C32.3199 35.8732 32.3199 35.8732 32.3199 35.9349C32.3199 35.9965 32.3199 36.1507 32.5675 36.1816C32.7533 36.2124 33.3724 36.2741 34.1154 36.3666C34.8584 36.4591 35.7252 36.6132 36.4682 36.7366C36.9635 36.7982 37.397 36.8291 37.8613 36.7982C38.3257 36.7366 38.7281 36.6749 39.1306 36.6132Z" fill="#F9F9FB"/>
<path d="M42.7217 31.9234C42.505 30.9984 41.8859 29.7958 40.3999 28.655C40.1522 28.47 39.9046 28.285 39.595 28.1C39.3164 27.915 39.0068 27.73 38.6972 27.5758C38.3876 27.4216 38.0471 27.2675 37.7375 27.1133C37.4279 26.9591 37.0874 26.8666 36.7778 26.7433C35.5086 26.2808 34.425 26.0958 34.0845 26.065C33.6511 26.0033 33.5892 26.1575 33.5582 26.1883C33.5582 26.25 33.5582 26.25 33.8678 26.5583C33.8678 26.5583 34.0226 26.6816 34.2703 26.8666C34.5179 27.0516 34.8585 27.36 35.2609 27.73C36.0348 28.47 36.9636 29.6108 37.6137 30.875C37.8923 31.2759 38.14 31.5842 38.3876 31.8617C38.6353 32.1392 38.852 32.3242 39.0997 32.5092C39.3473 32.6942 39.564 32.8484 39.8117 32.9717L40.1522 33.1876C40.2761 33.2801 40.3689 33.3417 40.4928 33.4342C40.2451 33.1876 40.0594 32.9717 39.8736 32.8176C39.6879 32.6326 39.5331 32.4784 39.4092 32.3551C39.1306 32.0776 38.9449 31.8309 38.7591 31.4917C38.5734 31.1525 38.3567 30.7517 38.0471 30.135C37.8923 29.8267 37.6756 29.5183 37.397 29.0867C37.1184 28.6858 36.8088 28.2542 36.3754 27.73C38.1709 28.3158 39.8427 29.2408 40.9571 30.3817C41.5144 30.9367 41.9168 31.5534 42.1954 32.1084C42.4431 32.7251 42.536 33.2801 42.4741 33.8659C42.7527 33.5267 42.9384 32.8484 42.7217 31.9234Z" fill="#F9F9FB"/>
<path d="M33.3105 34.656C33.4963 34.5944 33.713 34.5019 33.8678 34.4094C34.2392 34.2244 34.5488 34.0394 34.8584 33.8235C35.137 33.6077 35.4156 33.361 35.6014 33.0835C34.6417 33.731 33.5891 33.9777 32.4127 34.1319C31.2673 34.286 29.998 34.286 28.6668 34.3477C28.8836 34.1627 29.0693 34.0085 29.255 33.8235C29.4408 33.6693 29.6265 33.546 29.7813 33.3918C30.1219 33.1452 30.4005 32.8985 30.6791 32.7135C31.2054 32.3435 31.5769 32.0968 31.9174 31.9426C32.2579 31.7885 32.5675 31.696 32.939 31.6651C33.3105 31.6343 33.7749 31.6343 34.425 31.696C33.8987 31.5418 33.4343 31.3876 32.8771 31.326C32.3199 31.2951 31.6388 31.3876 30.8029 31.8193C30.6481 31.9118 30.5243 32.0352 30.3695 32.1277C30.2147 32.2202 30.0909 32.3435 29.9671 32.436C29.6885 32.6518 29.4408 32.8368 29.1931 33.0218C28.6978 33.4227 28.2954 33.731 27.9239 34.0394C27.5833 34.3477 27.2737 34.5635 27.088 34.7177C26.9023 34.8719 26.7784 34.9644 26.7784 34.9952C26.5308 35.2419 26.5308 35.2419 26.5308 35.3344C26.5308 35.396 26.5617 35.5194 26.8403 35.5194C26.9332 35.5194 27.1809 35.4885 27.4905 35.4577C27.8 35.4269 28.2025 35.396 28.6049 35.3652C29.4408 35.2727 30.4314 35.2419 31.2054 35.1185C31.7007 35.0569 32.196 34.9335 32.6294 34.841C32.8771 34.8102 33.0938 34.7177 33.3105 34.656Z" fill="#F9F9FB"/>
<path d="M25.3234 27.4585C25.3234 27.4585 25.5092 27.4893 25.8187 27.551C26.1283 27.6127 26.5927 27.7668 27.119 27.921C27.6453 28.0752 28.2644 28.3527 28.9145 28.6302C29.2241 28.7844 29.5646 28.9694 29.8742 29.1544C30.029 29.2469 30.1838 29.3394 30.3695 29.4319C30.5243 29.5244 30.6791 29.6477 30.8649 29.771C31.7626 30.2336 32.4127 30.4802 33.0009 30.5727C33.5891 30.6961 34.1154 30.6652 34.6727 30.7577C33.9916 30.5111 33.5272 30.4186 33.1557 30.2644C32.7842 30.1102 32.4747 29.9869 32.1341 29.771C31.7936 29.5552 31.3911 29.2777 30.772 28.9077C30.4624 28.6919 30.0909 28.5069 29.6575 28.2602C29.4408 28.1369 29.1931 28.0135 28.9145 27.8902C28.6359 27.7668 28.3573 27.6435 28.0477 27.4893C29.8123 27.2427 31.6698 27.3043 33.2486 27.7668C34.8275 28.2294 36.0348 29.0927 36.5611 30.2027C36.5301 29.8635 36.4373 29.5244 36.2206 29.1544C36.0348 28.7844 35.7252 28.4144 35.3228 28.0752C35.137 27.8902 34.8894 27.736 34.6417 27.5818C34.394 27.4277 34.1154 27.2735 33.8058 27.1502C33.2176 26.8727 32.5056 26.6877 31.7007 26.5335C30.4934 26.3485 28.9764 26.3485 27.7072 26.5027C27.088 26.5643 26.5308 26.6877 26.0974 26.7493C25.664 26.8418 25.3544 26.9343 25.1996 26.9652C24.8281 27.0885 24.8281 27.2118 24.8591 27.2735C24.89 27.3043 24.89 27.3043 25.3234 27.4585Z" fill="#F9F9FB"/>
<path d="M29.7195 31.9222C30.06 31.7063 30.4005 31.4597 30.7101 31.213C29.4718 31.8297 28.2335 32.1072 26.8714 32.1997C25.5402 32.323 24.0852 32.2922 22.5373 32.1997L22.5682 32.1688H22.5373C23.7446 31.213 25.1068 30.473 26.5308 30.103C27.9549 29.7638 29.4409 29.8563 30.7101 30.473C30.4005 30.1955 30.06 29.9796 29.6576 29.7946C29.2551 29.5788 28.7907 29.4555 28.2954 29.363C27.2738 29.178 26.0665 29.3013 24.7662 29.7638C23.7446 30.1338 22.5682 30.8121 21.6705 31.4597C21.4538 31.6138 21.2371 31.768 21.0203 31.9222C20.8346 32.0763 20.6489 32.2305 20.4941 32.3538C20.1845 32.6005 19.9678 32.7855 19.9059 32.878C19.7511 33.0322 19.782 33.1247 19.813 33.1863C19.813 33.248 19.8749 33.3405 20.0916 33.3405C20.2154 33.3405 20.4941 33.3405 20.8656 33.3405C21.0513 33.3405 21.268 33.3097 21.5157 33.3097C21.7633 33.3097 22.011 33.3097 22.2896 33.2788C22.5682 33.2788 22.8159 33.248 23.1255 33.248C23.4041 33.248 23.6827 33.248 23.9613 33.2172C24.5186 33.1863 25.0758 33.1863 25.5402 33.1555C26.7785 33.063 27.7691 32.8472 28.605 32.508C28.9765 32.323 29.3789 32.1072 29.7195 31.9222Z" fill="#F9F9FB"/>
</svg>
