<?xml version="1.0" encoding="UTF-8" standalone="no"?>
<svg
   xmlns:dc="http://purl.org/dc/elements/1.1/"
   xmlns:cc="http://creativecommons.org/ns#"
   xmlns:rdf="http://www.w3.org/1999/02/22-rdf-syntax-ns#"
   xmlns:svg="http://www.w3.org/2000/svg"
   xmlns="http://www.w3.org/2000/svg"
   xmlns:sodipodi="http://sodipodi.sourceforge.net/DTD/sodipodi-0.dtd"
   xmlns:inkscape="http://www.inkscape.org/namespaces/inkscape"
   width="33"
   height="520"
   viewBox="0 0 33 520"
   fill="none"
   version="1.1"
   id="svg936"
   sodipodi:docname="popipo5.svg"
   xml:space="preserve"
   inkscape:export-filename="Group 467.png"
   inkscape:export-xdpi="96"
   inkscape:export-ydpi="96"
   inkscape:version="0.92.5 (2060ec1f9f, 2020-04-08)"><metadata
     id="metadata103"><rdf:RDF><cc:Work
         rdf:about=""><dc:format>image/svg+xml</dc:format><dc:type
           rdf:resource="http://purl.org/dc/dcmitype/StillImage" /><dc:title></dc:title></cc:Work></rdf:RDF></metadata><defs
     id="defs940" /><sodipodi:namedview
     id="namedview938"
     pagecolor="#ffffff"
     bordercolor="#000000"
     borderopacity="0.25"
     inkscape:showpageshadow="2"
     inkscape:pageopacity="0.0"
     inkscape:pagecheckerboard="0"
     inkscape:deskcolor="#d1d1d1"
     showgrid="false"
     inkscape:snap-bbox="false"
     showguides="false"
     inkscape:zoom="8"
     inkscape:cx="24.461991"
     inkscape:cy="516.53143"
     inkscape:window-width="1920"
     inkscape:window-height="1011"
     inkscape:window-x="1920"
     inkscape:window-y="0"
     inkscape:window-maximized="1"
     inkscape:current-layer="svg936" /><line
     x1="2.8178201"
     y1="2.53108"
     x2="2.81758"
     y2="5576.2798"
     stroke="#6ab354"
     stroke-width="4.86196"
     stroke-linecap="round"
     id="line932" /><line
     x1="30.045"
     y1="2.53108"
     x2="30.044701"
     y2="5576.2798"
     stroke="#6ab354"
     stroke-width="4.86196"
     stroke-linecap="round"
     id="line934" /><g
     style="fill:none"
     id="g1089"
     transform="translate(9.2695348,89.957085)"><path
       d="M 8.95578,21.2117 V 21.1665 L 0.872192,19.1234 v -2.761 H 11.771 v 2.096 H 4.9072 l -0.00755,0.0453 6.87135,1.9677 v 1.4143 L 4.95243,23.84 4.95998,23.8837 h 6.81252 v 2.1034 H 0.873711 v -2.7458 z"
       fill="#6ab354"
       id="path1065" /><path
       d="m 7.8175,8.18092 c 1.28318,0 2.2889,0.30758 3.0172,0.91976 0.7268,0.6137 1.0917,1.42192 1.0917,2.42472 0,1.0178 -0.3634,1.835 -1.0917,2.4502 -0.7283,0.6167 -1.73402,0.9243 -3.0172,0.9243 H 4.83198 c -1.27263,0 -2.27688,-0.3061 -3.01272,-0.9198 -0.73583,-0.6122 -1.102219,-1.4265 -1.102219,-2.4397 0,-1.0073 0.366389,-1.82 1.102219,-2.43521 C 2.5551,8.48999 3.55935,8.18092 4.83198,8.18092 Z m -3.174,2.11698 c -0.71925,0 -1.27715,0.1116 -1.67674,0.3348 -0.39958,0.2216 -0.59715,0.5247 -0.59715,0.9092 0,0.3951 0.19908,0.6996 0.59715,0.9168 0.40109,0.2171 0.959,0.3257 1.67674,0.3257 h 3.34592 c 0.73281,0 1.29825,-0.1101 1.69481,-0.3303 0.39807,-0.2201 0.59557,-0.5292 0.59557,-0.9273 0,-0.3845 -0.1975,-0.6845 -0.59557,-0.9032 -0.39656,-0.2171 -0.962,-0.3257 -1.69482,-0.3257 z"
       fill="#6ab354"
       id="path1067" /><path
       d="M 2.52487,0.0429153 C 3.86836,1.13159 5.12589,1.86895 6.29749,2.25647 7.4706,2.64248 8.85028,2.83701 10.4365,2.83701 h 1.333 v 2.12456 h -1.333 C 8.90456,4.96157 7.50378,4.71577 6.23417,4.22421 4.96305,3.73265 3.72813,3.01793 2.52487,2.08005 V 7.01978 H 0.870728 l -10e-7,-6.9768647 z"
       fill="#6ab354"
       id="path1069" /><path
       d="m 10.1544,335.884 v -0.045 l -8.0836,-2.043 v -2.761 h 10.8988 v 2.096 H 6.10581 l -0.00755,0.045 6.87134,1.968 v 1.414 l -6.81856,1.955 0.00755,0.043 h 6.81251 v 2.104 H 2.07232 v -2.746 z"
       fill="#6ab354"
       id="path1071" /><path
       d="m 9.01599,322.854 c 1.28321,0 2.28891,0.307 3.01721,0.919 0.7268,0.614 1.0917,1.422 1.0917,2.425 0,1.018 -0.3634,1.835 -1.0917,2.45 -0.7283,0.617 -1.734,0.925 -3.01721,0.925 H 6.03047 c -1.27263,0 -2.27689,-0.307 -3.01272,-0.92 -0.73583,-0.612 -1.10222,-1.427 -1.10222,-2.44 0,-1.007 0.36639,-1.82 1.10222,-2.435 0.73583,-0.615 1.74009,-0.924 3.01271,-0.924 z m -3.17401,2.117 c -0.71924,0 -1.27715,0.111 -1.67673,0.334 -0.39958,0.222 -0.59715,0.525 -0.59715,0.91 0,0.395 0.19908,0.699 0.59715,0.916 0.40109,0.217 0.959,0.326 1.67673,0.326 H 9.1879 c 0.73282,0 1.2983,-0.11 1.6948,-0.33 0.3981,-0.22 0.5956,-0.529 0.5956,-0.928 0,-0.384 -0.1975,-0.684 -0.5956,-0.903 -0.3965,-0.217 -0.96198,-0.325 -1.6948,-0.325 z"
       fill="#6ab354"
       id="path1073" /><path
       d="m 3.72347,314.716 c 1.3435,1.088 2.60103,1.826 3.77263,2.213 1.17311,0.386 2.5528,0.581 4.139,0.581 h 1.333 v 2.124 h -1.333 c -1.5319,0 -2.93271,-0.246 -4.20232,-0.737 -1.27112,-0.492 -2.50604,-1.206 -3.70931,-2.144 v 4.939 H 2.06934 v -6.976 z"
       fill="#6ab354"
       id="path1075" /></g><rect
     style="display:none;fill:#bf9086;fill-rule:evenodd;stroke:none;stroke-width:3.02361;stroke-linecap:round;stroke-linejoin:bevel;stroke-miterlimit:3.6;paint-order:markers fill stroke"
     id="rect1506"
     width="9.1650238"
     height="520.16248"
     x="11.959151"
     y="0.55964506"
     rx="0.49999997"
     ry="0.49999997" /><rect
     id="rect3826"
     width="4.8575845"
     height="2.9702778"
     x="0.38687479"
     y="0.092059001"
     style="fill:#6ab354;fill-opacity:1;stroke-width:1.01441145" /><rect
     id="rect3826-3"
     width="4.8575845"
     height="2.9702778"
     x="27.61027"
     y="0.10079908"
     style="opacity:1;fill:#6ab354;fill-opacity:1;stroke-width:1.01441145" /></svg>